<?xml version="1.0" encoding="UTF-8"?>
<svg width="24px" height="6px" viewBox="0 0 24 6" version="1.1" xmlns="http://www.w3.org/2000/svg" xmlns:xlink="http://www.w3.org/1999/xlink">
    <title>直线备份</title>
    <g id="VIZ-&amp;-DAE" stroke="none" stroke-width="1" fill="none" fill-rule="evenodd">
        <g id="搜索/可视化/预测分析" transform="translate(-1123.000000, -212.000000)" fill="#FFFFFF" fill-rule="nonzero">
            <g id="Legends备份" transform="translate(814.000000, 204.000000)">
                <path d="M309.579089,11.6840283 C309.886547,11.9231625 310.199843,12.1432841 310.51896,12.3442014 C311.220011,12.7855847 312.146137,12.5750827 312.587521,11.8740319 C313.028904,11.1729811 312.818402,10.2468552 312.117351,9.80547184 C311.883009,9.65792941 311.650867,9.49482662 311.420911,9.31597167 C310.76699,8.80736662 309.824577,8.92516829 309.315972,9.57908908 C308.807367,10.2330099 308.925168,11.1754233 309.579089,11.6840283 Z M315.027499,13.8562721 C315.414787,13.8856282 315.806378,13.8921543 316.202,13.8759724 C317.029735,13.8421161 317.673301,13.1436584 317.639445,12.3159233 C317.605588,11.4881883 316.907131,10.8446225 316.079396,10.8784788 C315.799528,10.889926 315.524569,10.8853436 315.254245,10.8648534 C314.428188,10.8022391 313.707777,11.4211321 313.645163,12.2471896 C313.582548,13.0732471 314.201441,13.7936579 315.027499,13.8562721 Z M320.636646,12.8187606 C320.965383,12.6800049 321.296296,12.5278246 321.629419,12.3622782 C322.371289,11.9936046 322.673825,11.093331 322.305151,10.3514609 C321.936478,9.60959079 321.036204,9.30705531 320.294334,9.67572898 C320.015918,9.81408811 319.741144,9.94045145 319.470048,10.0548776 C318.706823,10.3770247 318.349258,11.2568928 318.671405,12.0201181 C318.993553,12.7833433 319.873421,13.1409077 320.636646,12.8187606 Z M325.041131,11.163589 C325.330041,11.1093522 325.615736,11.0686688 325.898309,11.0414395 C326.722917,10.9619789 327.326978,10.2290869 327.247517,9.40447937 C327.168056,8.57987189 326.435164,7.97581103 325.610557,8.05527168 C325.238237,8.09114906 324.863891,8.14445651 324.487613,8.21509468 C323.673409,8.36794424 323.137275,9.15189623 323.290125,9.96610045 C323.442974,10.7803047 324.226926,11.3164385 325.041131,11.163589 Z M329.288795,11.3972234 C329.556826,11.4833671 329.823125,11.5836599 330.087818,11.6982224 C330.84809,12.027278 331.731165,11.6777078 332.060221,10.9174355 C332.389276,10.1571633 332.039706,9.27408855 331.279434,8.94503296 C330.925669,8.79191902 330.56806,8.65723749 330.206733,8.54110907 C329.418039,8.28762739 328.573188,8.72150286 328.319707,9.51019706 C328.066225,10.2988913 328.5001,11.1437417 329.288795,11.3972234 Z" id="直线备份"></path>
            </g>
        </g>
    </g>
</svg>