<?xml version="1.0" encoding="UTF-8"?>
<svg width="25px" height="6px" viewBox="0 0 25 6" version="1.1" xmlns="http://www.w3.org/2000/svg" xmlns:xlink="http://www.w3.org/1999/xlink">
    <title>直线备份</title>
    <g id="VIZ-&amp;-DAE" stroke="none" stroke-width="1" fill="none" fill-rule="evenodd">
        <g id="搜索/可视化/预测分析" transform="translate(-993.000000, -212.000000)" fill="#FFFFFF" fill-rule="nonzero">
            <g id="Legends备份" transform="translate(814.000000, 204.000000)">
                <path d="M190.32918,9.65835921 C194.769938,7.43798003 198.978776,7.43798003 202.771744,9.71376061 C203.482114,10.1399829 203.712462,11.0613732 203.286239,11.7717436 C202.860017,12.482114 201.938627,12.7124616 201.228256,12.2862394 C198.44436,10.6159018 195.425098,10.5637038 192.003231,12.1800134 L191.67082,12.3416408 C187.178435,14.5878335 183.06043,14.391738 179.579089,11.6840283 C178.925168,11.1754233 178.807367,10.2330099 179.315972,9.57908908 C179.824577,8.92516829 180.76699,8.80736662 181.420911,9.31597167 C183.863247,11.2155663 186.647232,11.4021762 190.012022,9.81258868 L190.32918,9.65835921 Z" id="直线备份"></path>
            </g>
        </g>
    </g>
</svg>